<svg xmlns="http://www.w3.org/2000/svg" xmlns:xlink="http://www.w3.org/1999/xlink"><symbol id="icn-arrow" viewBox="0 0 16 16"><path d="M13 9L8 4 3 9" stroke="currentColor" stroke-width="1.5" stroke-linejoin="bevel"/><path d="M8 4v9" stroke="currentColor" stroke-width="1.5"/></symbol><symbol id="icn-business" viewBox="0 0 158 266"><path d="M79 240.627V265l78-44.755v-24.36l-78 44.742zM1 195.885v24.36L79 265v-24.373L1 195.885zm78-77.837l59.915-34.376.052 113.041-59.992 33.547L79 118.048z" stroke="currentColor" stroke-miterlimit="10" stroke-linecap="round" stroke-linejoin="round"/><path d="M78.975 117.996L19.086 83.672 18.97 195.08l60.006 35.18V117.996zm42.364-55.548L79.106 86.692v21.198l42.272-24.256-.039-21.186zm-84.678 0l42.364 24.244v21.198L36.622 83.634l.04-21.186z" stroke="currentColor" stroke-miterlimit="10" stroke-linecap="round" stroke-linejoin="round"/><path d="M56.509 8.75l.417-.244s8.723-4.942 10.366-5.895C71.764.024 77.672.565 83.956 4.143 96.643 11.376 106.97 29.035 106.97 43.5c0 7.08-1.998 12.675-6.431 15.224-4.133 2.381-10.638 5.94-10.638 5.94" stroke="currentColor" stroke-width="2" stroke-miterlimit="10" stroke-linecap="round" stroke-linejoin="round"/><path d="M83.562 66.347c-3.208 0-6.754-1.062-10.418-3.161C60.457 55.902 50.13 38.126 50.13 23.56c0-7.165 2.451-12.517 6.91-15.07 4.46-2.552 10.354-1.995 16.586 1.582 12.687 7.282 23.014 25.06 23.014 39.624 0 7.165-2.451 12.517-6.91 15.07-1.839 1.062-3.912 1.58-6.168 1.58z" stroke="currentColor" stroke-width="2" stroke-miterlimit="10" stroke-linecap="round" stroke-linejoin="round"/><path d="M19.086 83.672L18.97 195.08l8.397 4.924V88.414l-8.28-4.742zm8.411 4.797l-.13 111.501 8.41 4.927V93.227l-8.28-4.758zm8.421 4.841l-.117 111.57 8.397 4.931V98.06l-8.28-4.75zm8.412 4.84l-.13 111.732 8.41 4.937v-111.9l-8.28-4.769z" stroke="currentColor" stroke-miterlimit="10" stroke-linecap="round" stroke-linejoin="round"/><path d="M52.727 102.934l-.118 111.785 8.398 4.941V107.692l-8.28-4.758z" stroke="currentColor" stroke-miterlimit="10" stroke-linecap="round" stroke-linejoin="round"/><path d="M60.824 107.658l-.117 111.874 8.397 4.944V112.433l-8.28-4.775zM79 118.046l9.284-5.325v112.108l-9.31 5.429.027-112.212z" stroke="currentColor" stroke-miterlimit="10" stroke-linecap="round" stroke-linejoin="round"/><path d="M79 118.014l9.284-5.293v112.308l-9.18 5.229L79 118.014zm9.286-5.263l9.284-5.277v112.225l-9.193 5.238-.09-112.186z" stroke="currentColor" stroke-miterlimit="10" stroke-linecap="round" stroke-linejoin="round"/><path d="M97.565 107.378l9.271-5.298v112.369l-9.18 5.233-.09-112.304zm9.275-5.324l9.284-5.302v112.509l-9.18 5.251-.104-112.458z" stroke="currentColor" stroke-miterlimit="10" stroke-linecap="round" stroke-linejoin="round"/><path d="M116.123 96.712l9.284-5.306v112.728l-9.193 5.254-.091-112.676z" stroke="currentColor" stroke-miterlimit="10" stroke-linecap="round" stroke-linejoin="round"/><path d="M125.407 91.445l9.284-5.318v112.904l-9.193 5.253-.091-112.839zM71.006 50.578c-2.7-1.632-5.138-3.589-7.68-6.115-.496-.493-.822-1.218-.835-1.827l-.078-4.47c-.013-1.024.887-1.245 1.721-.39a68.59 68.59 0 003.443 3.266c1.864 1.645 3.507 2.85 4.915 3.628 1.16.635 2.008.946 2.543.933.535-.026.795-.402.782-1.153-.013-.519-.208-1.05-.6-1.633-.39-.57-1.056-1.335-1.968-2.28a141.906 141.906 0 00-3.703-3.667c-1.748-1.685-3.156-3.279-4.238-4.782-1.083-1.503-1.878-2.941-2.373-4.34-.509-1.4-.77-2.929-.796-4.6-.039-2.566.652-4.16 2.074-4.808 1.42-.648 3.26-.48 6.154.79l-.04-2.707c-.025-1.335 1.213-1.801 2.387-1.154 1.174.648 2.464 2.514 2.49 3.849l.053 2.656c2.32 1.425 4.328 3.084 6.689 5.377.678.661 1.004 1.724.743 2.32l-1.382 3.135c-.261.596-1.004.493-1.67-.155-2.398-2.397-4.59-4.134-6.558-5.235-1.095-.609-1.864-.881-2.295-.816-.443.052-.652.376-.639.972.013.518.17 1.023.509 1.529.326.505.886 1.192 1.682 2.034.795.855 1.904 1.93 3.325 3.252 2.868 2.721 4.942 5.17 6.206 7.321 1.265 2.151 1.917 4.393 1.956 6.7.04 2.604-.652 4.327-2.073 5.156-1.421.83-3.351.739-6.141-.414l.065 3.848c.026 1.335-1.082 1.788-2.256 1.14-1.174-.648-2.334-2.306-2.347-3.64l-.065-3.72z" stroke="currentColor" stroke-miterlimit="10" stroke-linecap="round" stroke-linejoin="round"/><path d="M36.115 62.863v11.04l-17.029 9.77-.795 102.286L1 195.884v24.36l78 44.755 78-44.755v-24.36l-17.237-9.537-.848-102.675-17.042-10.094-.13-9.977-.418-1.14-15.725-9.019c1.213-2.578 1.369-6.012 1.369-9.64 0-14.564-10.326-32.342-23.013-39.624C77.67.576 71.763.03 67.291 2.636c-1.526.894-9.167 5.26-10.236 5.87h-.013s-.013 0-.013.013a2.847 2.847 0 00-.105.064l-.417.247.026.038c-4.12 2.67-6.402 7.853-6.402 14.72 0 8.5 3.314 17.86 8.752 25.828L36.115 62.863z" stroke="currentColor" stroke-width="2" stroke-miterlimit="10" stroke-linecap="round" stroke-linejoin="round"/></symbol><symbol id="icn-close"><path d="M2 14L14 2M2 2l12 12" fill="none" stroke="#000" stroke-width="2"/></symbol><symbol id="icn-company" viewBox="0 0 290 266"><path d="M1 177.23l.015 5.454L144.2 265.001l-.015-5.454L1 177.23z" stroke="currentColor" stroke-miterlimit="10" stroke-linecap="round" stroke-linejoin="round"/><path d="M40.074 154.896L1 177.232l143.2 82.076 144.8-82.03-45.872-26.286" stroke="currentColor" stroke-miterlimit="10" stroke-linecap="round" stroke-linejoin="round"/><path d="M40.294 159.674L19.4 171.63l35.576 19.926 89.876-50.757 83.489 47.341 35.576-19.926-20.774-12.246m-98.959 103.579l.015 5.454 144.579-82.224-.015-5.454-144.579 82.224zm.516-161.636v7.675l83.323 47.982-.03-8.479L144.7 97.911zm125.25 31.799l-.03-8.479-41.926 23.858.03 8.479 41.926-23.858z" stroke="currentColor" stroke-miterlimit="10" stroke-linecap="round" stroke-linejoin="round"/><path d="M54.861 148.501l.03 8.479 89.81-51.394v-7.675l-89.84 50.59z" stroke="currentColor" stroke-miterlimit="10" stroke-linecap="round" stroke-linejoin="round"/><path d="M13.207 124.645l.03 8.478 41.655 23.858-.03-8.479-41.655-23.857zm56.714-32.277l-56.713 32.276 41.654 23.857 89.84-50.59 83.293 47.178 41.926-23.857-89.326-51.157" stroke="currentColor" stroke-miterlimit="10" stroke-linecap="round" stroke-linejoin="round"/><path d="M40.062 148.444l.03 10.967 35.781 20.188-.175-34.463m.002 0l.174 34.464 68.894-38.715m-.001-34.731v34.73l62.682 35.299-.333-34.477m.001.001l.333 34.476 35.696-20.215-.03-10.983" stroke="currentColor" stroke-miterlimit="10" stroke-linecap="round" stroke-linejoin="round"/><path d="M200.75 160.441v-16.809l-31.66-18.016v16.809l31.66 18.016z" stroke="currentColor" stroke-miterlimit="10" stroke-linecap="round" stroke-linejoin="round"/><path d="M192.373 155.659v-16.594l-.106-.06-14.802-8.563v16.595l.106.06 14.802 8.562zm-107.996 7.492l31.66-18.016v-16.809l-31.66 18.016v16.809z" stroke="currentColor" stroke-miterlimit="10" stroke-linecap="round" stroke-linejoin="round"/><path d="M84.607 149.889l31.237-17.777v-3.427l-31.222 17.762v3.442h-.015zm40.229-8.184l13.819-7.868v-16.809l-13.819 7.868v16.809zm-54.81-59.701v10.23l35.194 20.228.412-34.28" stroke="currentColor" stroke-miterlimit="10" stroke-linecap="round" stroke-linejoin="round"/><path d="M105.234 78.259v34.199l75.36-42.387-.254-34.512-75.106 42.7zM84.25 83.143l.015 6.78 102.18-57.979-.015-6.78L84.25 83.143zM42.58 59.274l.015 6.78 41.654 23.858-.015-6.78L42.58 59.274z" stroke="currentColor" stroke-miterlimit="10" stroke-linecap="round" stroke-linejoin="round"/><path d="M42.594 59.538L84.25 83.395l102.375-58.22-41.316-24.173L42.594 59.538zm67.743 40.789l31.66-18.016V65.502l-31.66 18.016v16.809z" stroke="currentColor" stroke-miterlimit="10" stroke-linecap="round" stroke-linejoin="round"/><path d="M118.711 95.34l14.908-8.293V70.288l-14.908 8.54V95.34zm37.057-18.843l13.819-7.868V51.835l-13.819 7.868v16.794zm93.031 123.654v5.364l35.939-20.34V179.6l-35.939 20.551z" stroke="currentColor" stroke-miterlimit="10" stroke-linecap="round" stroke-linejoin="round"/><path d="M228.34 188.141l20.459 12.01 36.012-20.55-20.895-11.387-35.576 19.927zM40.294 200.097v5.2l-35.75-20.672v-5.124l35.75 20.596z" stroke="currentColor" stroke-miterlimit="10" stroke-linecap="round" stroke-linejoin="round"/><path d="M54.977 191.557l-14.51 8.476-35.75-20.432L19.4 171.63l35.577 19.927zm100.32 42.675c12.187-1.222 23.859-4.5 33.263-9.85 24.357-13.858 24.357-36.314 0-50.173-14.046-7.987-33.112-11.369-51.406-10.147m-17.885 2.757c-6.849 1.729-13.275 4.188-18.899 7.377-24.358 13.858-24.358 36.314 0 50.173 10.205 5.811 23.087 9.179 36.377 10.118" stroke="currentColor" stroke-miterlimit="10" stroke-linecap="round" stroke-linejoin="round"/><path d="M139.678 170.172l-2.495-5.916-2.495-5.916-7.756 4.172-7.756 4.188 10.251 1.743 10.251 1.729zm-2.918 64.464l.514 6.08 8.997-3.278 8.996-3.294-9.511-2.786-9.495-2.787.499 6.065zm-17.054-21.818c.347-.909.242-2.295-.031-3.129-.997-1.058-3.583-1.401-8.028-1.162-5.186.283-6.894-.835-7.923-3.532-1.013-2.667-1.043-4.321 4.34-5.424 5.609-1.148 7.393-2.608 5.458-4.59a16.977 16.977 0 00-.756-.655c-.061-.045-.106-.075-.166-.12h.015c-.56-.462-1.18-.894-1.845-1.311-1.572-.983-4.566-2.354-4.173-3.055.575-1.028 1.437-2.056 2.48-3.01a19.236 19.236 0 013.613-2.608c.938-.521 4.415.403 6.653.76.952.149 1.92.269 2.888.358h-.015c.09.015.181.015.272.03l1.36.089c3.977.105 5.489-1.46 4.793-4.828-.665-3.233 1.936-3.949 6.592-4.634 4.718-.686 7.227-.313 9.087 2.459 1.588 2.369 3.281 3.531 5.398 3.576 1.421-.224 3.644-.79 4.929-1.386 3.22-1.46 4.853-4.515 10.795-2.027 5.957 2.489 6.244 2.265 3.432 7.213-1.27 2.235 1.346 4.366 5.473 4.411 1.044.014 2.117.059 3.1-.09 6.017-.849 6.562 1.49 7.786 3.904 1.316 2.608.242 3.904-4.248 4.918-7.832 1.743-8.543 4.053-1.815 7.138 4.642 2.116 2.495 3.71.62 5.617-2.222 1.863-3.719 3.607-9.117 2.191-7.832-2.056-11.158-.656-10.417 4.113.423 2.727-1.134 3.874-5.821 4.366-4.339.462-8.27 1.222-9.616-2.221-.227-.566-.771-1.102-1.255-1.624-1.92-2.071-6.441-2.458-9.389-.819-6.516 3.651-6.305 3.397-12.882 1.475-6.516-1.907-2.449-4.113-1.587-6.393z" stroke="currentColor" stroke-miterlimit="10" stroke-linecap="round" stroke-linejoin="round"/><path d="M144.457 213.132c-13.436 0-24.327-6.198-24.327-13.843 0-7.646 10.891-13.844 24.327-13.844 13.436 0 24.327 6.198 24.327 13.844 0 7.645-10.891 13.843-24.327 13.843z" stroke="currentColor" stroke-miterlimit="10" stroke-linecap="round" stroke-linejoin="round"/><path d="M144.698 203.119c-3.565 0-6.456-1.648-6.456-3.681 0-2.032 2.891-3.68 6.456-3.68 3.566 0 6.456 1.648 6.456 3.68 0 2.033-2.89 3.681-6.456 3.681z" stroke="currentColor" stroke-miterlimit="10" stroke-linecap="round" stroke-linejoin="round"/><path d="M13.187 124.943l56.438-32.708v-9.662l-27-16.48V59.84L144.764 1.397l41.349 23.727v7.829l-5.676 3.02V70.07l89.691 50.887v9.109l-25.976 15.373v5.693l44.612 25.62v5.693L144.199 265 .999 182.923v-5.693l38.165-22.112v-6.262l-25.977-15.942v-7.971z" stroke="currentColor" stroke-width="2" stroke-miterlimit="10" stroke-linecap="round" stroke-linejoin="round"/></symbol><symbol id="icn-fb" viewBox="0 0 13 24"><path d="M8.011 12.801h3.723l.584-3.804H8.011v-2.08c0-1.58.513-2.981 1.982-2.981h2.361V.616c-.414-.056-1.292-.18-2.95-.18-3.462 0-5.491 1.84-5.491 6.03v2.531H.354V12.8h3.559v10.456a14.33 14.33 0 002.151.18c.663 0 1.31-.062 1.947-.148V12.8z" fill="currentColor"/></symbol><symbol id="icn-invest" viewBox="0 0 233 266"><path d="M201.362 182.569l30.587-15.346v13.888l-30.061 15.671m8.05-18.549l22.01-11.014v-27.75l-22.01 11v27.764z" stroke="currentColor" stroke-miterlimit="10" stroke-linecap="round" stroke-linejoin="round"/><path d="M201.363 182.57l8.577-4.292v-27.751l-8.577 4.279m8.064-12.159l22.522-10.96v-28.074l-22.522 11.27v27.764z" stroke="currentColor" stroke-miterlimit="10" stroke-linecap="round" stroke-linejoin="round"/><path d="M201.363 146.705l8.065-4.022v-27.764l-8.065 4.036m7.399-12.24l23.182-11.594v-27.75l-23.182 11.594v27.75z" stroke="currentColor" stroke-miterlimit="10" stroke-linecap="round" stroke-linejoin="round"/><path d="M201.359 110.467l7.404-3.698V79.005l-7.404 3.698m-65.121 122.473l-22.522 11.162m-67.511 38.914L1.08 232.672 1 108.5l45.206 23.671v123.081zm67.51-96.086l17.545-8.787v-29.181l-17.545 8.787m5.247-2.62v29.168m37.478 58.969l-20.364-10.191.162-126.199 20.202 8.166v128.224zm0 8.998v-8.997l-20.364-10.191v9.179L156.44 224.5z" stroke="currentColor" stroke-miterlimit="10" stroke-linecap="round" stroke-linejoin="round"/><path d="M201.361 193.259l-45.097 22.135V87.171l45.097-22.136V193.26zM68.578 132.696l-22.374-.526v123.067l22.374.648V132.696zm-67.5 108.828l45.111 23.08v-9.367l-45.11-22.46v8.747z" stroke="currentColor" stroke-miterlimit="10" stroke-linecap="round" stroke-linejoin="round"/><path d="M68.577 265.305l-22.387-.702v-9.367l22.387.702v9.367zm45.138-61.588l17.977-9.002v-27.494l-17.977 9.002" stroke="currentColor" stroke-miterlimit="10" stroke-linecap="round" stroke-linejoin="round"/><path d="M119.702 200.518l.782-.391v-26.806M32.499 94l-31.5 14.5 44.936 23.67 22.374.526 45.111-23.431-19.61-8.989 42.159-21.163 20.202 8.165 75.509-37.67-63.48-21.866L72.732 74.5" stroke="currentColor" stroke-miterlimit="10" stroke-linecap="round" stroke-linejoin="round"/><path d="M113.689 233l-45.11 22.783V132.697l45.11-23.431V233zm0 9.605l-45.11 22.702v-9.367l45.11-22.919v9.584zm87.673-49.346v8.341L156.5 224.499l-.047-9.442M68.578 140.39l45.111-22.621m77.006-4.064V86.427L167.701 97.94v27.278l22.994-11.513zm.77 38.79v-27.278l-22.994 11.513v27.278l22.994-11.513zm0 38.009v-27.277l-22.994 11.513v27.278l22.994-11.514zm-12.598-98.151v27.277m1.106 11.337v27.278m0 10.664v27.278" stroke="currentColor" stroke-miterlimit="10" stroke-linecap="round" stroke-linejoin="round"/><path d="M103.34 154.781v-27.278l-22.994 11.513v27.278l22.994-11.513zm.783 38.79v-27.278l-22.994 11.513v27.278l22.994-11.513zm0 38.019v-27.278l-22.994 11.514v27.264l22.994-11.5zm-12.606-98.164v27.278m1.105 11.35v27.264m0 10.678v27.278m43.453-22.783L113.688 226v-9.701l22.387-10.987v9.179z" stroke="currentColor" stroke-miterlimit="10" stroke-linecap="round" stroke-linejoin="round"/><path d="M231.949 49.607v125.619" stroke="#2E2E2E" stroke-miterlimit="10" stroke-linecap="round" stroke-linejoin="round"/><path d="M7.742 161.31v-26.414l31.8 15.913v26.225M7.795 161.31l31.679 15.724m-18.258-35.39v26.319m18.326 34.987v28.762l-31.8-15.913v-28.573m.053 0l31.679 15.724m-18.258-9.057v28.209" stroke="currentColor" stroke-miterlimit="10" stroke-linecap="round" stroke-linejoin="round"/><path d="M41.915 96.567l-1.74-.419-15.59-4.805c-4.234-1.457-7.296-5.453-8.658-11.27l-5.043-21.5c-2.738-11.676 2.13-27.846 10.87-36.052L37.841 7.404c4.491-4.21 9.373-5.83 13.716-4.535l16.615 5.116" stroke="currentColor" stroke-width="2" stroke-miterlimit="10" stroke-linecap="round" stroke-linejoin="round"/><path d="M43.829 96.795a10.7 10.7 0 01-3.062-.445c-4.37-1.323-7.552-5.358-8.968-11.392l-5.044-21.5c-2.737-11.676 2.145-27.845 10.87-36.052l16.09-15.116c4.502-4.24 9.385-5.845 13.768-4.522 4.369 1.323 7.552 5.358 8.968 11.392l5.044 21.5c2.737 11.635-2.118 27.764-10.803 35.984.203 3.698 1.524 6.1 2.63 7.505.566.715.796 1.727.607 2.834-.203 1.269-.863 2.376-1.767 2.97-2.59 1.713-5.111 2.2-7.498 1.444-2.441-.783-4.113-2.727-5.125-4.28l-5.003 4.712c-3.48 3.266-7.188 4.966-10.708 4.966z" stroke="currentColor" stroke-width="2" stroke-miterlimit="10" stroke-linecap="round" stroke-linejoin="round"/><path d="M50.615 74.484c-.135 0-.283-.014-.418-.04-1.106-.217-1.848-1.202-1.982-2.646l-.877-9.273c-.054-.513-.216-.715-.256-.742l-5.867-1.633c-.782-.216-1.375-.837-1.645-1.755-.486-1.58 0-3.725 1.146-5.115l5.934-7.046c.432-.513.742-1.296.823-2.051l1.011-10.137c.203-2.01 1.39-3.82 2.819-4.305.863-.284 1.713-.081 2.333.593l4.545 4.913c.04.027.135 0 .283-.094l6.5-4.63c.918-.661 1.956-.701 2.752-.121 1.119.81 1.483 2.632.89 4.548L65.49 45.033c-.215.715-.242 1.471-.054 1.93l3.008 7.275c.512 1.255.35 3.01-.445 4.481-.607 1.134-1.457 1.863-2.387 2.065l-6.474 1.323c-.188.04-.606.35-.957 1.04l-4.64 9.123c-.741 1.39-1.82 2.214-2.926 2.214z" stroke="currentColor" stroke-miterlimit="10" stroke-linecap="round" stroke-linejoin="round"/><path d="M156.5 224l-20.5-9.5-21.5 11-.5 17L68.5 265l-22-.5-45.5-23 .081-132.868L32 94l-8-2.5c-4.235-1.458-6.709-6.057-8.07-11.874l-5.044-21.488c-2.738-11.675 2.13-27.844 10.87-36.05L37.843 6.97c4.491-4.212 9.373-5.831 13.716-4.535 1.423.438 16.648 4.872 16.574 5.169 4.019 1.525 6.959 5.426 8.294 11.122l5.044 21.5c2.454 10.461.607 23.634-6.473 32.354L168 28l63.5 21.5v131.622L202 197l-.5 4.5-45 22.5z" stroke="currentColor" stroke-width="2" stroke-miterlimit="10" stroke-linecap="round" stroke-linejoin="round"/></symbol><symbol id="icn-logo" viewBox="0 0 70 23"><path d="M2.874 4.683v7.624c1.438.923 2.767 1.196 4.312 1.196 3.45 0 5.605-2.359 5.605-5.606 0-3.111-1.904-5.333-5.246-5.333-1.904 0-3.664.923-4.67 2.12zM0 .341h2.874v1.812C3.988.923 6.144 0 8.372 0c4.599 0 7.473 3.247 7.473 7.794 0 4.683-3.341 8.273-8.407 8.273-1.725 0-3.414-.342-4.564-1.06v7.556H0V.34m21.511 6.326h9.809c-.144-2.53-1.869-4.102-4.671-4.102-2.946 0-4.815 1.743-5.138 4.102zm11.677 7.384c-1.58 1.368-3.916 2.017-6.072 2.017-5.246 0-8.659-3.179-8.659-8.033C18.457 3.555 21.475 0 26.793 0c4.168 0 7.51 2.803 7.51 7.042 0 .752-.073 1.368-.18 1.846H21.69c.251 2.906 2.479 4.616 5.64 4.616 2.085 0 3.917-.684 4.959-1.607l.898 2.153m11.291-6.564l3.593 3.658c1.042 1.128 2.659 2.564 4.096 2.017l-.036 2.564c-2.407.684-4.85-.854-6.467-2.94l-4.491-5.094 7.222-7.35h3.449l-7.366 7.145zM37.688.341h2.874v15.384h-2.874V.341zM66.43 11.487V3.555a8.255 8.255 0 00-3.952-.991c-3.629 0-6 2.53-6 5.606 0 3.35 2.227 5.334 5.425 5.334 1.869 0 3.63-1.026 4.527-2.017zm0 2.632c-1.15 1.094-3.018 1.948-4.994 1.948-4.886 0-8.012-3.179-8.012-8.033 0-4.479 3.808-8.034 9.09-8.034 2.587 0 5.138.752 6.79 1.743v13.983H66.43v-1.607z" fill="currentColor"/></symbol><symbol id="icn-tg" viewBox="0 0 19 17"><path d="M19 .602l-3.005 15.69s-.42 1.088-1.576.566l-6.934-5.505-.033-.017c.937-.87 8.2-7.633 8.518-7.94.491-.475.186-.757-.384-.399l-10.73 7.056L.719 8.611s-.652-.24-.714-.762c-.064-.522.735-.805.735-.805L17.613.189S19-.442 19 .602z" fill="currentColor"/></symbol></svg>