<svg xmlns="http://www.w3.org/2000/svg" xmlns:xlink="http://www.w3.org/1999/xlink" xmlns:cc="http://creativecommons.org/ns#" xmlns:dc="http://purl.org/dc/elements/1.1/" xmlns:inkscape="http://www.inkscape.org/namespaces/inkscape" xmlns:rdf="http://www.w3.org/1999/02/22-rdf-syntax-ns#" xmlns:sodipodi="http://sodipodi.sourceforge.net/DTD/sodipodi-0.dtd" xmlns:svg="http://www.w3.org/2000/svg"><symbol id="icn-arrow" viewBox="0 0 16 16">
<path d="M13 9L8 4L3 9" stroke="currentColor" stroke-width="1.5" stroke-linejoin="bevel"/>
<path d="M8 4L8 13" stroke="currentColor" stroke-width="1.5"/>
</symbol><symbol id="icn-business" viewBox="0 0 158 266">
<path d="M79 240.627V265L157 220.245V195.885L79 240.627Z" stroke="currentColor" stroke-miterlimit="10" stroke-linecap="round" stroke-linejoin="round"/>
<path d="M1 195.885V220.245L78.9997 265V240.627L1 195.885Z" stroke="currentColor" stroke-miterlimit="10" stroke-linecap="round" stroke-linejoin="round"/>
<path d="M79.0007 118.048L138.915 83.6719L138.967 196.713L78.9746 230.26L79.0007 118.048Z" stroke="currentColor" stroke-miterlimit="10" stroke-linecap="round" stroke-linejoin="round"/>
<path d="M78.9745 117.996L19.0861 83.6719L18.9688 195.08L78.9745 230.26V117.996Z" stroke="currentColor" stroke-miterlimit="10" stroke-linecap="round" stroke-linejoin="round"/>
<path d="M121.339 62.4482L79.1055 86.6917V107.89L121.378 83.6338L121.339 62.4482Z" stroke="currentColor" stroke-miterlimit="10" stroke-linecap="round" stroke-linejoin="round"/>
<path d="M36.6612 62.4482L79.0251 86.6917V107.89L36.6221 83.6338L36.6612 62.4482Z" stroke="currentColor" stroke-miterlimit="10" stroke-linecap="round" stroke-linejoin="round"/>
<path d="M56.5088 8.75065L56.926 8.50611C56.926 8.50611 65.6492 3.56376 67.2921 2.61133C71.7645 0.0243265 77.6712 0.564895 83.956 4.14295C96.643 11.3763 106.97 29.0348 106.97 43.5015C106.97 50.5804 104.972 56.1765 100.539 58.7249C96.4057 61.106 89.901 64.6645 89.901 64.6645" stroke="currentColor" stroke-width="2" stroke-miterlimit="10" stroke-linecap="round" stroke-linejoin="round"/>
<path d="M83.562 66.3471C80.3544 66.3471 76.8078 65.2846 73.1438 63.1855C60.4568 55.9034 50.1299 38.1257 50.1299 23.5614C50.1299 16.3959 52.5812 11.0445 57.0406 8.49185C61.4999 5.93922 67.3936 6.4964 73.6263 10.0727C86.3133 17.3548 96.6402 35.1325 96.6402 49.6967C96.6402 56.8622 94.1889 62.2137 89.7295 64.7663C87.891 65.8288 85.8178 66.3471 83.562 66.3471Z" stroke="currentColor" stroke-width="2" stroke-miterlimit="10" stroke-linecap="round" stroke-linejoin="round"/>
<path d="M19.0861 83.6719L18.9688 195.08L27.3659 200.004V88.4143L19.0861 83.6719Z" stroke="currentColor" stroke-miterlimit="10" stroke-linecap="round" stroke-linejoin="round"/>
<path d="M27.4966 88.4688L27.3662 199.97L35.7764 204.897V93.2275L27.4966 88.4688Z" stroke="currentColor" stroke-miterlimit="10" stroke-linecap="round" stroke-linejoin="round"/>
<path d="M35.9181 93.3105L35.8008 204.88L44.1979 209.811V98.0598L35.9181 93.3105Z" stroke="currentColor" stroke-miterlimit="10" stroke-linecap="round" stroke-linejoin="round"/>
<path d="M44.3306 98.1504L44.2002 209.882L52.6104 214.819V102.919L44.3306 98.1504Z" stroke="currentColor" stroke-miterlimit="10" stroke-linecap="round" stroke-linejoin="round"/>
<path d="M52.7267 102.934L52.6094 214.719L61.0065 219.66V107.692L52.7267 102.934Z" stroke="currentColor" stroke-miterlimit="10" stroke-linecap="round" stroke-linejoin="round"/>
<path d="M60.8244 107.658L60.707 219.532L69.1042 224.476V112.433L60.8244 107.658Z" stroke="currentColor" stroke-miterlimit="10" stroke-linecap="round" stroke-linejoin="round"/>
<path d="M79.0007 118.046L88.2845 112.721V224.829L78.9746 230.258L79.0007 118.046Z" stroke="currentColor" stroke-miterlimit="10" stroke-linecap="round" stroke-linejoin="round"/>
<path d="M79 118.014L88.2838 112.721V225.029L79.1043 230.258L79 118.014Z" stroke="currentColor" stroke-miterlimit="10" stroke-linecap="round" stroke-linejoin="round"/>
<path d="M88.2861 112.751L97.5699 107.474V219.699L88.3774 224.937L88.2861 112.751Z" stroke="currentColor" stroke-miterlimit="10" stroke-linecap="round" stroke-linejoin="round"/>
<path d="M97.5654 107.378L106.836 102.08V214.449L97.6567 219.682L97.5654 107.378Z" stroke="currentColor" stroke-miterlimit="10" stroke-linecap="round" stroke-linejoin="round"/>
<path d="M106.84 102.054L116.124 96.752V209.261L106.944 214.512L106.84 102.054Z" stroke="currentColor" stroke-miterlimit="10" stroke-linecap="round" stroke-linejoin="round"/>
<path d="M116.123 96.712L125.407 91.4062V204.134L116.214 209.388L116.123 96.712Z" stroke="currentColor" stroke-miterlimit="10" stroke-linecap="round" stroke-linejoin="round"/>
<path d="M125.407 91.445L134.691 86.127V199.031L125.498 204.284L125.407 91.445Z" stroke="currentColor" stroke-miterlimit="10" stroke-linecap="round" stroke-linejoin="round"/>
<path d="M71.0058 50.5785C68.3067 48.9459 65.8684 46.9893 63.3258 44.4626C62.8303 43.9702 62.5044 43.2446 62.4913 42.6356L62.4131 38.1652C62.4 37.1416 63.2997 36.9213 64.1342 37.7765C65.2295 38.8909 66.377 39.9793 67.5766 41.0418C69.4411 42.6874 71.0841 43.8925 72.4923 44.6699C73.6528 45.3048 74.5003 45.6158 75.0349 45.6028C75.5695 45.5769 75.8303 45.2012 75.8172 44.4496C75.8042 43.9313 75.6086 43.4001 75.2174 42.817C74.8263 42.2469 74.1613 41.4824 73.2485 40.5365C72.3358 39.5906 71.0971 38.3596 69.5455 36.8695C67.7982 35.185 66.39 33.5912 65.3078 32.0882C64.2255 30.5851 63.4301 29.1468 62.9347 27.7474C62.4261 26.348 62.1653 24.819 62.1393 23.1475C62.1001 20.5819 62.7912 18.9881 64.2125 18.3403C65.6337 17.6924 67.4722 17.8608 70.3669 19.1307L70.3278 16.4225C70.3017 15.0879 71.5404 14.6215 72.7139 15.2693C73.8875 15.9172 75.1783 17.7831 75.2044 19.1177L75.2566 21.774C77.5775 23.1993 79.5855 24.8579 81.9456 27.1514C82.6236 27.8122 82.9496 28.8747 82.6888 29.4708L81.3067 32.6065C81.0459 33.2025 80.3027 33.0989 79.6377 32.451C77.2385 30.0538 75.0479 28.3175 73.079 27.2161C71.9838 26.6071 71.2145 26.335 70.7842 26.3998C70.3408 26.4517 70.1322 26.7756 70.1452 27.3716C70.1583 27.8899 70.3148 28.3953 70.6538 28.9006C70.9797 29.406 71.5404 30.0927 72.3358 30.935C73.1312 31.7901 74.2395 32.8656 75.6608 34.1873C78.5294 36.9084 80.6026 39.3573 81.8674 41.5083C83.1322 43.6592 83.7841 45.9009 83.8232 48.2073C83.8623 50.8118 83.1713 52.5351 81.75 53.3644C80.3288 54.1937 78.399 54.103 75.6086 52.9498L75.6738 56.7981C75.6999 58.1328 74.5916 58.5863 73.4181 57.9384C72.2445 57.2905 71.0841 55.632 71.071 54.2973L71.0058 50.5785Z" stroke="currentColor" stroke-miterlimit="10" stroke-linecap="round" stroke-linejoin="round"/>
<path d="M36.1152 62.8633V73.9021L19.0862 83.6721L18.2908 185.959L1.00098 195.884V220.244L79.0006 264.999L157 220.244V195.884L139.763 186.347L138.915 83.6721L121.873 73.5782L121.743 63.6009L121.325 62.4607L105.6 53.4422C106.813 50.8637 106.969 47.43 106.969 43.8019C106.969 29.2376 96.6425 11.4599 83.9555 4.17782C77.6706 0.575632 71.764 0.0314168 67.2916 2.63588C65.766 3.52994 58.1251 7.89662 57.0559 8.50562H57.0429C57.0429 8.50562 57.0298 8.50562 57.0298 8.51858C56.9646 8.55745 56.9255 8.58337 56.9255 8.58337L56.5083 8.82956L56.5343 8.86843C52.414 11.5377 50.1322 16.7207 50.1322 23.5882C50.1322 32.0883 53.4464 41.4472 58.8837 49.4161L36.1152 62.8633Z" stroke="currentColor" stroke-width="2" stroke-miterlimit="10" stroke-linecap="round" stroke-linejoin="round"/>
</symbol><symbol id="icn-close"><g id="layer1" transform="translate(0,-1036.3622)"><path d="m 2,1050.3622 12,-12" id="path2985" style="fill:none;stroke:#000000;stroke-width:2;stroke-linecap:butt;stroke-linejoin:miter;stroke-miterlimit:4;stroke-opacity:1;stroke-dasharray:none"/><path d="m 2,1038.3622 12,12" id="path2985-1" style="fill:none;stroke:#000000;stroke-width:2;stroke-linecap:butt;stroke-linejoin:miter;stroke-miterlimit:4;stroke-opacity:1;stroke-dasharray:none"/></g></symbol><symbol id="icn-company" viewBox="0 0 290 266">
<path d="M1.00002 177.23L1.01514 182.684L144.199 265.001L144.184 259.547L1.00002 177.23Z" stroke="currentColor" stroke-miterlimit="10" stroke-linecap="round" stroke-linejoin="round"/>
<path d="M40.0736 154.896L1.00017 177.232L144.199 259.308L289 177.278L243.128 150.992" stroke="currentColor" stroke-miterlimit="10" stroke-linecap="round" stroke-linejoin="round"/>
<path d="M40.2936 159.674L19.3995 171.63L54.9759 191.556L144.852 140.799L228.341 188.14L263.917 168.214L243.143 155.968" stroke="currentColor" stroke-miterlimit="10" stroke-linecap="round" stroke-linejoin="round"/>
<path d="M144.184 259.547L144.199 265.001L288.778 182.777L288.763 177.323L144.184 259.547Z" stroke="currentColor" stroke-miterlimit="10" stroke-linecap="round" stroke-linejoin="round"/>
<path d="M144.7 97.9111V105.586L228.023 153.568L227.993 145.089L144.7 97.9111Z" stroke="currentColor" stroke-miterlimit="10" stroke-linecap="round" stroke-linejoin="round"/>
<path d="M269.95 129.71L269.92 121.231L227.994 145.089L228.024 153.568L269.95 129.71Z" stroke="currentColor" stroke-miterlimit="10" stroke-linecap="round" stroke-linejoin="round"/>
<path d="M54.8615 148.501L54.8917 156.98L144.701 105.586V97.9111L54.8615 148.501Z" stroke="currentColor" stroke-miterlimit="10" stroke-linecap="round" stroke-linejoin="round"/>
<path d="M13.2073 124.645L13.2375 133.123L54.8916 156.981L54.8614 148.502L13.2073 124.645Z" stroke="currentColor" stroke-miterlimit="10" stroke-linecap="round" stroke-linejoin="round"/>
<path d="M69.921 92.3677L13.208 124.644L54.862 148.501L144.702 97.911L227.995 145.089L269.921 121.232L180.595 70.0752" stroke="currentColor" stroke-miterlimit="10" stroke-linecap="round" stroke-linejoin="round"/>
<path d="M40.062 148.444L40.0922 159.411L75.873 179.599L75.6985 145.136" stroke="currentColor" stroke-miterlimit="10" stroke-linecap="round" stroke-linejoin="round"/>
<path d="M75.6991 145.136L75.8735 179.6L144.768 140.885" stroke="currentColor" stroke-miterlimit="10" stroke-linecap="round" stroke-linejoin="round"/>
<path d="M144.767 106.154V140.884L207.449 176.183L207.116 141.706" stroke="currentColor" stroke-miterlimit="10" stroke-linecap="round" stroke-linejoin="round"/>
<path d="M207.117 141.707L207.45 176.183L243.146 155.968L243.116 144.985" stroke="currentColor" stroke-miterlimit="10" stroke-linecap="round" stroke-linejoin="round"/>
<path d="M200.75 160.441V143.632L169.09 125.616V142.425L200.75 160.441Z" stroke="currentColor" stroke-miterlimit="10" stroke-linecap="round" stroke-linejoin="round"/>
<path d="M192.373 155.659V139.065L192.267 139.005L177.465 130.442V147.037L177.571 147.097L192.373 155.659Z" stroke="currentColor" stroke-miterlimit="10" stroke-linecap="round" stroke-linejoin="round"/>
<path d="M84.377 163.151L116.037 145.135V128.326L84.377 146.342V163.151Z" stroke="currentColor" stroke-miterlimit="10" stroke-linecap="round" stroke-linejoin="round"/>
<path d="M84.607 149.889L115.844 132.112V128.685L84.6221 146.447V149.889H84.607Z" stroke="currentColor" stroke-miterlimit="10" stroke-linecap="round" stroke-linejoin="round"/>
<path d="M124.836 141.705L138.655 133.837V117.028L124.836 124.896V141.705Z" stroke="currentColor" stroke-miterlimit="10" stroke-linecap="round" stroke-linejoin="round"/>
<path d="M70.0256 82.0043V92.2338L105.22 112.462L105.632 78.1826" stroke="currentColor" stroke-miterlimit="10" stroke-linecap="round" stroke-linejoin="round"/>
<path d="M105.234 78.2588V112.458L180.594 70.0711L180.34 35.5586L105.234 78.2588Z" stroke="currentColor" stroke-miterlimit="10" stroke-linecap="round" stroke-linejoin="round"/>
<path d="M84.2495 83.1426L84.2646 89.9227L186.445 31.9442L186.43 25.1641L84.2495 83.1426Z" stroke="currentColor" stroke-miterlimit="10" stroke-linecap="round" stroke-linejoin="round"/>
<path d="M42.5799 59.2744L42.595 66.0546L84.249 89.9117L84.2339 83.1316L42.5799 59.2744Z" stroke="currentColor" stroke-miterlimit="10" stroke-linecap="round" stroke-linejoin="round"/>
<path d="M42.5944 59.5377L84.2485 83.3949L186.624 25.175L145.308 1.00195L42.5944 59.5377Z" stroke="currentColor" stroke-miterlimit="10" stroke-linecap="round" stroke-linejoin="round"/>
<path d="M110.337 100.327L141.997 82.3107V65.502L110.337 83.5178V100.327Z" stroke="currentColor" stroke-miterlimit="10" stroke-linecap="round" stroke-linejoin="round"/>
<path d="M118.711 95.3392L133.619 87.0471V70.2881L118.711 78.8281V95.3392Z" stroke="currentColor" stroke-miterlimit="10" stroke-linecap="round" stroke-linejoin="round"/>
<path d="M155.768 76.4968L169.587 68.6289V51.835L155.768 59.7029V76.4968Z" stroke="currentColor" stroke-miterlimit="10" stroke-linecap="round" stroke-linejoin="round"/>
<path d="M248.799 200.151V205.515L284.738 185.175V179.6L248.799 200.151Z" stroke="currentColor" stroke-miterlimit="10" stroke-linecap="round" stroke-linejoin="round"/>
<path d="M228.34 188.141L248.799 200.151L284.811 179.601L263.916 168.214L228.34 188.141Z" stroke="currentColor" stroke-miterlimit="10" stroke-linecap="round" stroke-linejoin="round"/>
<path d="M40.2939 200.097V205.297L4.54433 184.625V179.501L40.2939 200.097Z" stroke="currentColor" stroke-miterlimit="10" stroke-linecap="round" stroke-linejoin="round"/>
<path d="M54.9766 191.557L40.4673 200.033L4.71776 179.601L19.4001 171.63L54.9766 191.557Z" stroke="currentColor" stroke-miterlimit="10" stroke-linecap="round" stroke-linejoin="round"/>
<path d="M155.297 234.232C167.484 233.01 179.156 229.732 188.56 224.382C212.917 210.524 212.917 188.068 188.56 174.209C174.514 166.222 155.448 162.84 137.154 164.062" stroke="currentColor" stroke-miterlimit="10" stroke-linecap="round" stroke-linejoin="round"/>
<path d="M119.269 166.819C112.42 168.548 105.994 171.007 100.37 174.196C76.0123 188.054 76.0123 210.51 100.37 224.369C110.575 230.18 123.457 233.548 136.747 234.487" stroke="currentColor" stroke-miterlimit="10" stroke-linecap="round" stroke-linejoin="round"/>
<path d="M139.678 170.172L137.183 164.256L134.688 158.34L126.932 162.512L119.176 166.7L129.427 168.443L139.678 170.172Z" stroke="currentColor" stroke-miterlimit="10" stroke-linecap="round" stroke-linejoin="round"/>
<path d="M136.76 234.636L137.274 240.716L146.271 237.438L155.267 234.144L145.756 231.358L136.261 228.571L136.76 234.636Z" stroke="currentColor" stroke-miterlimit="10" stroke-linecap="round" stroke-linejoin="round"/>
<path d="M119.706 212.818C120.053 211.909 119.948 210.523 119.675 209.689C118.678 208.631 116.092 208.288 111.647 208.527C106.461 208.81 104.753 207.692 103.724 204.995C102.711 202.328 102.681 200.674 108.064 199.571C113.673 198.423 115.457 196.963 113.522 194.981C113.28 194.758 113.038 194.549 112.766 194.326C112.705 194.281 112.66 194.251 112.6 194.206H112.615C112.055 193.744 111.435 193.312 110.77 192.895C109.198 191.912 106.204 190.541 106.597 189.84C107.172 188.812 108.034 187.784 109.077 186.83C110.075 185.906 111.33 184.982 112.69 184.222C113.628 183.701 117.105 184.625 119.343 184.982C120.295 185.131 121.263 185.251 122.231 185.34H122.216C122.306 185.355 122.397 185.355 122.488 185.37C122.941 185.4 123.395 185.429 123.848 185.459C127.825 185.564 129.337 183.999 128.641 180.631C127.976 177.398 130.577 176.682 135.233 175.997C139.951 175.311 142.46 175.684 144.32 178.456C145.908 180.825 147.601 181.987 149.718 182.032C151.139 181.808 153.362 181.242 154.647 180.646C157.867 179.186 159.5 176.131 165.442 178.619C171.399 181.108 171.686 180.884 168.874 185.832C167.604 188.067 170.22 190.198 174.347 190.243C175.391 190.257 176.464 190.302 177.447 190.153C183.464 189.304 184.009 191.643 185.233 194.057C186.549 196.665 185.475 197.961 180.985 198.975C173.153 200.718 172.442 203.028 179.17 206.113C183.812 208.229 181.665 209.823 179.79 211.73C177.568 213.593 176.071 215.337 170.673 213.921C162.841 211.865 159.515 213.265 160.256 218.034C160.679 220.761 159.122 221.908 154.435 222.4C150.096 222.862 146.165 223.622 144.819 220.179C144.592 219.613 144.048 219.077 143.564 218.555C141.644 216.484 137.123 216.097 134.175 217.736C127.659 221.387 127.87 221.133 121.293 219.211C114.777 217.304 118.844 215.098 119.706 212.818Z" stroke="currentColor" stroke-miterlimit="10" stroke-linecap="round" stroke-linejoin="round"/>
<path d="M144.457 213.132C131.021 213.132 120.13 206.934 120.13 199.289C120.13 191.643 131.021 185.445 144.457 185.445C157.893 185.445 168.784 191.643 168.784 199.289C168.784 206.934 157.893 213.132 144.457 213.132Z" stroke="currentColor" stroke-miterlimit="10" stroke-linecap="round" stroke-linejoin="round"/>
<path d="M144.698 203.119C141.133 203.119 138.242 201.471 138.242 199.438C138.242 197.406 141.133 195.758 144.698 195.758C148.264 195.758 151.154 197.406 151.154 199.438C151.154 201.471 148.264 203.119 144.698 203.119Z" stroke="currentColor" stroke-miterlimit="10" stroke-linecap="round" stroke-linejoin="round"/>
<path d="M13.1874 124.943L69.625 92.2347V82.5734L42.625 66.0925V59.8411L144.764 1.39746L186.113 25.1236V32.9527L180.437 35.9721V70.0706L270.128 120.958V130.067L244.152 145.44V151.133L288.764 176.753V182.446L144.199 265L0.999876 182.923V177.23L39.1638 155.118V148.856L13.1874 132.914V124.943Z" stroke="currentColor" stroke-width="2" stroke-miterlimit="10" stroke-linecap="round" stroke-linejoin="round"/>
</symbol><symbol id="icn-fb" viewBox="0 0 13 24">
<path d="M8.01139 12.8012H11.7336L12.318 8.99695H8.01063V6.91775C8.01063 5.3374 8.52388 3.93602 9.99322 3.93602H12.3543V0.616146C11.9395 0.559787 11.0621 0.436405 9.40427 0.436405C5.9425 0.436405 3.91298 2.27571 3.91298 6.46611V8.99695H0.354309V12.8012H3.91298V23.2574C4.61775 23.364 5.3316 23.4364 6.06438 23.4364C6.72675 23.4364 7.37324 23.3755 8.01139 23.2887V12.8012Z" fill="currentColor"/>
</symbol><symbol id="icn-invest" viewBox="0 0 233 266">
<path d="M201.362 182.569L231.949 167.223V181.111L201.888 196.782" stroke="currentColor" stroke-miterlimit="10" stroke-linecap="round" stroke-linejoin="round"/>
<path d="M209.938 178.233L231.948 167.219V139.469L209.938 150.469V178.233Z" stroke="currentColor" stroke-miterlimit="10" stroke-linecap="round" stroke-linejoin="round"/>
<path d="M201.363 182.57L209.94 178.278V150.527L201.363 154.806" stroke="currentColor" stroke-miterlimit="10" stroke-linecap="round" stroke-linejoin="round"/>
<path d="M209.427 142.647L231.949 131.687V103.613L209.427 114.883V142.647Z" stroke="currentColor" stroke-miterlimit="10" stroke-linecap="round" stroke-linejoin="round"/>
<path d="M201.363 146.705L209.428 142.683V114.919L201.363 118.955" stroke="currentColor" stroke-miterlimit="10" stroke-linecap="round" stroke-linejoin="round"/>
<path d="M208.762 106.715L231.944 95.1213V67.3711L208.762 78.9652V106.715Z" stroke="currentColor" stroke-miterlimit="10" stroke-linecap="round" stroke-linejoin="round"/>
<path d="M201.359 110.467L208.763 106.769V79.0049L201.359 82.7031" stroke="currentColor" stroke-miterlimit="10" stroke-linecap="round" stroke-linejoin="round"/>
<path d="M136.238 205.176L113.716 216.338" stroke="currentColor" stroke-miterlimit="10" stroke-linecap="round" stroke-linejoin="round"/>
<path d="M46.2047 255.252L1.08008 232.672L0.999023 108.5L46.2047 132.171V255.252Z" stroke="currentColor" stroke-miterlimit="10" stroke-linecap="round" stroke-linejoin="round"/>
<path d="M113.715 159.166L131.26 150.379V121.198L113.715 129.985" stroke="currentColor" stroke-miterlimit="10" stroke-linecap="round" stroke-linejoin="round"/>
<path d="M118.962 127.365V156.533" stroke="currentColor" stroke-miterlimit="10" stroke-linecap="round" stroke-linejoin="round"/>
<path d="M156.44 215.502L136.076 205.311L136.238 79.1123L156.44 87.2781V215.502Z" stroke="currentColor" stroke-miterlimit="10" stroke-linecap="round" stroke-linejoin="round"/>
<path d="M156.44 224.5V215.503L136.076 205.312V214.491L156.44 224.5Z" stroke="currentColor" stroke-miterlimit="10" stroke-linecap="round" stroke-linejoin="round"/>
<path d="M201.361 193.259L156.264 215.394V87.1706L201.361 65.0352V193.259Z" stroke="currentColor" stroke-miterlimit="10" stroke-linecap="round" stroke-linejoin="round"/>
<path d="M68.5776 132.696L46.2041 132.17V255.237L68.5776 255.885V132.696Z" stroke="currentColor" stroke-miterlimit="10" stroke-linecap="round" stroke-linejoin="round"/>
<path d="M1.07812 241.524L46.1892 264.604V255.237L1.07812 232.777V241.524Z" stroke="currentColor" stroke-miterlimit="10" stroke-linecap="round" stroke-linejoin="round"/>
<path d="M68.5774 265.305L46.1904 264.603V255.236L68.5774 255.938V265.305Z" stroke="currentColor" stroke-miterlimit="10" stroke-linecap="round" stroke-linejoin="round"/>
<path d="M113.715 203.717L131.692 194.715V167.221L113.715 176.223" stroke="currentColor" stroke-miterlimit="10" stroke-linecap="round" stroke-linejoin="round"/>
<path d="M119.702 200.518L120.484 200.127V173.321" stroke="currentColor" stroke-miterlimit="10" stroke-linecap="round" stroke-linejoin="round"/>
<path d="M32.499 93.9995L0.999023 108.5L45.9351 132.17L68.3086 132.696L113.42 109.265L93.8109 100.276L135.969 79.1125L156.171 87.2783L231.68 49.6077L168.2 27.7422L72.7324 74.4995" stroke="currentColor" stroke-miterlimit="10" stroke-linecap="round" stroke-linejoin="round"/>
<path d="M113.689 233L68.5781 255.783L68.5781 132.697L113.689 109.266V233Z" stroke="currentColor" stroke-miterlimit="10" stroke-linecap="round" stroke-linejoin="round"/>
<path d="M113.689 242.605L68.5781 265.307V255.94L113.689 233.021V242.605Z" stroke="currentColor" stroke-miterlimit="10" stroke-linecap="round" stroke-linejoin="round"/>
<path d="M201.362 193.259V201.6L156.5 224.499L156.453 215.057" stroke="currentColor" stroke-miterlimit="10" stroke-linecap="round" stroke-linejoin="round"/>
<path d="M68.5781 140.39L113.689 117.769" stroke="currentColor" stroke-miterlimit="10" stroke-linecap="round" stroke-linejoin="round"/>
<path d="M190.695 113.705V86.4268L167.701 97.9399V125.218L190.695 113.705Z" stroke="currentColor" stroke-miterlimit="10" stroke-linecap="round" stroke-linejoin="round"/>
<path d="M191.465 152.495V125.217L168.471 136.73V164.008L191.465 152.495Z" stroke="currentColor" stroke-miterlimit="10" stroke-linecap="round" stroke-linejoin="round"/>
<path d="M191.465 190.504V163.227L168.471 174.74V202.018L191.465 190.504Z" stroke="currentColor" stroke-miterlimit="10" stroke-linecap="round" stroke-linejoin="round"/>
<path d="M178.867 92.3525V119.63" stroke="currentColor" stroke-miterlimit="10" stroke-linecap="round" stroke-linejoin="round"/>
<path d="M179.973 130.967V158.245" stroke="currentColor" stroke-miterlimit="10" stroke-linecap="round" stroke-linejoin="round"/>
<path d="M179.973 168.909V196.187" stroke="currentColor" stroke-miterlimit="10" stroke-linecap="round" stroke-linejoin="round"/>
<path d="M103.34 154.781V127.503L80.3457 139.016V166.294L103.34 154.781Z" stroke="currentColor" stroke-miterlimit="10" stroke-linecap="round" stroke-linejoin="round"/>
<path d="M104.123 193.571V166.293L81.1289 177.806V205.084L104.123 193.571Z" stroke="currentColor" stroke-miterlimit="10" stroke-linecap="round" stroke-linejoin="round"/>
<path d="M104.123 231.59V204.312L81.1289 215.826V243.09L104.123 231.59Z" stroke="currentColor" stroke-miterlimit="10" stroke-linecap="round" stroke-linejoin="round"/>
<path d="M91.5166 133.426V160.704" stroke="currentColor" stroke-miterlimit="10" stroke-linecap="round" stroke-linejoin="round"/>
<path d="M92.6221 172.054V199.318" stroke="currentColor" stroke-miterlimit="10" stroke-linecap="round" stroke-linejoin="round"/>
<path d="M92.6221 209.996V237.274" stroke="currentColor" stroke-miterlimit="10" stroke-linecap="round" stroke-linejoin="round"/>
<path d="M136.075 214.491L113.688 226V216.299L136.075 205.312V214.491Z" stroke="currentColor" stroke-miterlimit="10" stroke-linecap="round" stroke-linejoin="round"/>
<path d="M231.949 49.6074V175.226" stroke="#2E2E2E" stroke-miterlimit="10" stroke-linecap="round" stroke-linejoin="round"/>
<path d="M7.74219 161.31V134.896L39.5425 150.809V177.034" stroke="currentColor" stroke-miterlimit="10" stroke-linecap="round" stroke-linejoin="round"/>
<path d="M7.79492 161.31L39.4738 177.034" stroke="currentColor" stroke-miterlimit="10" stroke-linecap="round" stroke-linejoin="round"/>
<path d="M21.2158 141.644V167.963" stroke="currentColor" stroke-miterlimit="10" stroke-linecap="round" stroke-linejoin="round"/>
<path d="M39.5425 202.95V231.712L7.74219 215.799V187.226" stroke="currentColor" stroke-miterlimit="10" stroke-linecap="round" stroke-linejoin="round"/>
<path d="M7.79492 187.226L39.4738 202.95" stroke="currentColor" stroke-miterlimit="10" stroke-linecap="round" stroke-linejoin="round"/>
<path d="M21.2158 193.893V222.102" stroke="currentColor" stroke-miterlimit="10" stroke-linecap="round" stroke-linejoin="round"/>
<path d="M41.9151 96.5667L40.1754 96.1483L24.5854 91.3433C20.3507 89.8856 17.2894 85.8904 15.9273 80.0731L10.8835 58.5721C8.1458 46.897 13.0143 30.7273 21.7533 22.5211L37.8423 7.40419C42.3331 3.19306 47.2151 1.5734 51.5576 2.86913L68.1726 7.98457" stroke="currentColor" stroke-width="2" stroke-miterlimit="10" stroke-linecap="round" stroke-linejoin="round"/>
<path d="M43.8288 96.7954C42.7904 96.7954 41.7654 96.647 40.7674 96.35C36.3979 95.0273 33.2152 90.9916 31.7992 84.9584L26.7554 63.4574C24.0177 51.7823 28.8997 35.6126 37.6252 27.4063L53.7141 12.2895C58.2185 8.05135 63.1005 6.44518 67.4835 7.76791C71.853 9.09063 75.0357 13.1263 76.4517 19.1595L81.4956 40.6606C84.2332 52.2952 79.3782 68.4243 70.6932 76.6441C70.8955 80.3424 72.2171 82.7449 73.323 84.1486C73.8894 84.8639 74.1186 85.8762 73.9298 86.983C73.7275 88.2517 73.0667 89.3585 72.1631 89.9524C69.5738 91.6665 67.0519 92.1524 64.6649 91.3966C62.2239 90.6137 60.5516 88.6701 59.5401 87.1179L54.5368 91.8285C51.0574 95.0948 47.3487 96.7954 43.8288 96.7954Z" stroke="currentColor" stroke-width="2" stroke-miterlimit="10" stroke-linecap="round" stroke-linejoin="round"/>
<path d="M50.6152 74.4838C50.4803 74.4838 50.332 74.4703 50.1971 74.4433C49.0912 74.2273 48.3495 73.242 48.2146 71.7978L47.338 62.5253C47.2841 62.0124 47.1223 61.8099 47.0818 61.7829L41.2153 60.1497C40.4331 59.9338 39.8398 59.3129 39.57 58.3951C39.0845 56.8159 39.57 54.6699 40.7164 53.2797L46.6503 46.2341C47.0818 45.7212 47.392 44.9384 47.4729 44.1826L48.4844 34.0462C48.6867 32.0351 49.8734 30.2265 51.303 29.7406C52.1661 29.4571 53.0157 29.6596 53.6361 30.3344L58.1809 35.2474C58.2213 35.2744 58.3158 35.2474 58.4641 35.1529L64.9644 30.5234C65.8815 29.862 66.9199 29.8215 67.7156 30.4019C68.8349 31.2117 69.1991 33.0339 68.6057 34.9505L65.4904 45.0329C65.2746 45.7482 65.2476 46.5041 65.4364 46.963L68.4438 54.238C68.9563 55.4932 68.7945 57.2478 67.9988 58.719C67.3919 59.8528 66.5423 60.5817 65.6117 60.7841L59.1384 62.1068C58.9496 62.1473 58.5315 62.4578 58.1809 63.1461L53.5417 72.2702C52.7999 73.6604 51.721 74.4838 50.6152 74.4838Z" stroke="currentColor" stroke-miterlimit="10" stroke-linecap="round" stroke-linejoin="round"/>
<path d="M156.5 224L136 214.5L114.5 225.5L114 242.5L68.5 265L46.5 264.5L1 241.5L1.08105 108.632L32 94L24 91.5C19.7654 90.0423 17.2914 85.4433 15.9293 79.626L10.8855 58.1385C8.14779 46.4634 13.0163 30.2938 21.7553 22.0875L37.8442 6.97059C42.3351 2.75947 47.2171 1.1398 51.5596 2.43553C52.9833 2.87377 68.2083 7.30773 68.1341 7.60496C72.1529 9.13015 75.0929 13.0308 76.428 18.7267L81.4719 40.2277C83.9263 50.688 82.0787 63.8613 74.9985 72.5805L168 28L231.5 49.5V181.122L202 197L201.5 201.5L156.5 224Z" stroke="currentColor" stroke-width="2" stroke-miterlimit="10" stroke-linecap="round" stroke-linejoin="round"/>
</symbol><symbol id="icn-logo" viewBox="0 0 70 23">
  <path d="M2.87434 4.68307V12.3066C4.31175 13.2297 5.64103 13.5033 7.18609 13.5033C10.6354 13.5033 12.791 11.1442 12.791 7.89662C12.791 4.78565 10.8868 2.56365 7.54528 2.56365C5.64103 2.56365 3.88052 3.48652 2.87434 4.68307V4.68307ZM0 0.341357H2.87434V2.1532C3.98833 0.922609 6.14413 -0.00040827 8.37163 -0.00040827C12.9707 -0.00040827 15.845 3.24718 15.845 7.79404C15.845 12.4775 12.5037 16.067 7.43763 16.067C5.7129 16.067 4.02411 15.7253 2.87434 15.0074V22.5625H0V0.341357" fill="currentColor"/>
  <path d="M21.511 6.66623H31.3199C31.1762 4.13651 29.4514 2.56401 26.649 2.56401C23.7028 2.56401 21.8343 4.30747 21.511 6.66623ZM33.1882 14.0505C31.6072 15.4179 29.2719 16.0674 27.1161 16.0674C21.8704 16.0674 18.457 12.8882 18.457 8.03374C18.457 3.55526 21.4751 -4.74735e-05 26.7927 -4.74735e-05C30.9606 -4.74735e-05 34.3021 2.8032 34.3021 7.04234C34.3021 7.7944 34.2302 8.4097 34.1224 8.88838H21.6907C21.9421 11.7942 24.1699 13.5036 27.3316 13.5036C29.4155 13.5036 31.248 12.8198 32.29 11.8968L33.1882 14.0505" fill="currentColor"/>
  <path d="M44.4781 7.48634L48.0712 11.1441C49.1131 12.2724 50.7299 13.7081 52.1673 13.1611L52.1314 15.7251C49.724 16.409 47.2808 14.8705 45.6638 12.7851L41.1727 7.69133L48.3946 0.341222H51.8439L44.4781 7.48634ZM37.6875 0.341222H40.5618V15.7251H37.6875V0.341222Z" fill="currentColor"/>
  <path d="M66.4303 11.4866V3.55526C65.1727 2.87144 63.8075 2.56401 62.478 2.56401C58.8491 2.56401 56.4777 5.09373 56.4777 8.17036C56.4777 11.5207 58.7055 13.5036 61.9031 13.5036C63.7716 13.5036 65.5321 12.4779 66.4303 11.4866V11.4866ZM66.4303 14.1188C65.2807 15.2127 63.4122 16.0674 61.4361 16.0674C56.5497 16.0674 53.4238 12.8882 53.4238 8.03374C53.4238 3.55526 57.2323 -4.74735e-05 62.514 -4.74735e-05C65.1008 -4.74735e-05 67.6519 0.752011 69.3048 1.74341V15.7256H66.4303V14.1188Z" fill="currentColor"/>
</symbol><symbol id="icn-tg" viewBox="0 0 19 17">
<path d="M19 0.602225L15.9946 16.2923C15.9946 16.2923 15.5741 17.3801 14.4189 16.8584L7.48458 11.3526L7.45242 11.3364C8.38909 10.4654 15.6524 3.70266 15.9698 3.39612C16.4613 2.92136 16.1562 2.63873 15.5856 2.99736L4.85679 10.053L0.717638 8.61077C0.717638 8.61077 0.0662573 8.37083 0.00359284 7.84911C-0.0598962 7.32653 0.739076 7.0439 0.739076 7.0439L17.6131 0.188948C17.6131 0.188948 19 -0.44207 19 0.602225Z" fill="currentColor"/>
</symbol></svg>